<?xml version="1.0" encoding="iso-8859-1"?>
<!-- Generator: Adobe Illustrator 19.0.0, SVG Export Plug-In . SVG Version: 6.00 Build 0)  -->
<svg version="1.1" id="Layer_1" xmlns="http://www.w3.org/2000/svg" xmlns:xlink="http://www.w3.org/1999/xlink" x="0px" y="0px"
	 viewBox="0 0 496.158 496.158" style="enable-background:new 0 0 496.158 496.158;" xml:space="preserve">
<path style="fill:#32BEA6;" d="M496.158,248.085c0-137.021-111.07-248.082-248.076-248.082C111.07,0.003,0,111.063,0,248.085
	c0,137.002,111.07,248.07,248.083,248.07C385.088,496.155,496.158,385.087,496.158,248.085z"/>
<path style="fill:#FFFFFF;" d="M408.326,267.403v-38.649l-36.572-11.494c-3.107-12.406-8.03-24.09-14.476-34.756l17.779-34.071
	l-27.332-27.33l-34.171,17.828c-10.621-6.372-22.247-11.236-34.588-14.309l-11.562-36.789h-38.652l-11.562,36.789
	c-12.338,3.072-23.965,7.937-34.586,14.309l-34.172-17.828l-27.331,27.332l17.778,34.069c-6.444,10.666-11.367,22.35-14.472,34.756
	l-36.575,11.494v38.649l36.431,11.451c3.078,12.524,7.997,24.32,14.468,35.084l-17.63,33.784l27.332,27.331l33.688-17.575
	c10.803,6.546,22.659,11.523,35.251,14.636l11.379,36.211h38.652l11.38-36.211c12.593-3.112,24.448-8.09,35.254-14.636
	l33.688,17.575l27.332-27.331l-17.628-33.784c6.47-10.764,11.389-22.56,14.466-35.084L408.326,267.403z M248.08,332.899
	c-46.697,0-84.552-37.855-84.552-84.553c0-46.695,37.855-84.551,84.552-84.551c46.694,0,84.549,37.855,84.549,84.551
	C332.629,295.044,294.774,332.899,248.08,332.899z"/>
<g>
</g>
<g>
</g>
<g>
</g>
<g>
</g>
<g>
</g>
<g>
</g>
<g>
</g>
<g>
</g>
<g>
</g>
<g>
</g>
<g>
</g>
<g>
</g>
<g>
</g>
<g>
</g>
<g>
</g>
</svg>
